<?xml version="1.0" encoding="UTF-8"?>
<!DOCTYPE svg PUBLIC "-//W3C//DTD SVG 1.1//EN" "http://www.w3.org/Graphics/SVG/1.1/DTD/svg11.dtd">
<svg xmlns="http://www.w3.org/2000/svg" version="1.1" width="3840px" height="2160px" style="shape-rendering:geometricPrecision; text-rendering:geometricPrecision; image-rendering:optimizeQuality; fill-rule:evenodd; clip-rule:evenodd" xmlns:xlink="http://www.w3.org/1999/xlink">
<g><path style="opacity:1" fill="#00815b" d="M 831.5,23.5 C 1556.5,23.5 2281.5,23.5 3006.5,23.5C 3006.5,727.167 3006.5,1430.83 3006.5,2134.5C 2281.5,2134.5 1556.5,2134.5 831.5,2134.5C 831.5,1430.83 831.5,727.167 831.5,23.5 Z"/></g>
<g><path style="opacity:1" fill="#fefefe" d="M 1115.5,144.5 C 1650.96,144.334 2186.63,144.501 2722.5,145C 2760.28,149.788 2785.78,169.955 2799,205.5C 2800.75,212.569 2801.92,219.735 2802.5,227C 2747.97,784.495 2693.47,1342 2639,1899.5C 2637.48,1926.73 2628.48,1951.07 2612,1972.5C 2602.03,1983.9 2589.53,1990.74 2574.5,1993C 2445.17,1993.5 2315.83,1993.67 2186.5,1993.5C 2186.83,2021.84 2186.5,2050.17 2185.5,2078.5C 2012.6,2077.36 1839.76,2077.36 1667,2078.5C 1665.51,2050.31 1665.01,2021.98 1665.5,1993.5C 1532.17,1993.67 1398.83,1993.5 1265.5,1993C 1244.35,1988.85 1228.51,1977.35 1218,1958.5C 1208.09,1940.42 1202.42,1921.09 1201,1900.5C 1145.83,1342.83 1090.67,785.166 1035.5,227.5C 1038.12,192.073 1055.45,166.907 1087.5,152C 1096.7,148.534 1106.04,146.034 1115.5,144.5 Z"/></g>
<g><path style="opacity:1" fill="#fe1527" d="M 2537.5,368.5 C 2538.67,515.999 2538.83,663.666 2538,811.5C 2488.7,829.538 2443.87,855.038 2403.5,888C 2341.66,938.148 2291.16,997.648 2252,1066.5C 2234.86,1096.75 2224.03,1129.08 2219.5,1163.5C 2131.31,1163.12 2051.48,1163.12 1980,1163.5C 1915.9,1162.84 1851.73,1162.17 1787.5,1161.5C 1812.67,1037.53 1862.5,924.867 1937,823.5C 1997.85,741.642 2068.02,668.475 2147.5,604C 2267.04,509.12 2397.04,430.62 2537.5,368.5 Z"/></g>
<g><path style="opacity:1" fill="#fe8400" d="M 1333.5,383.5 C 1688.5,383.333 2043.5,383.5 2398.5,384C 2379.08,392.214 2360.08,401.214 2341.5,411C 2225.91,476.959 2118.24,553.959 2018.5,642C 1984.5,672.996 1953,706.163 1924,741.5C 1913.72,755.122 1904.22,769.288 1895.5,784C 1708.17,784.5 1520.83,784.667 1333.5,784.5C 1333.5,650.833 1333.5,517.167 1333.5,383.5 Z"/></g>
<g><path style="opacity:1" fill="#00815b" d="M 2483.5,1197.5 C 2501.74,1195.89 2519.08,1199.06 2535.5,1207C 2548.43,1214.35 2556.93,1225.18 2561,1239.5C 2562.48,1328.47 2562.98,1417.47 2562.5,1506.5C 2531.83,1506.5 2501.17,1506.5 2470.5,1506.5C 2470.67,1433.17 2470.5,1359.83 2470,1286.5C 2467.37,1280.54 2462.87,1276.7 2456.5,1275C 2447.36,1271.63 2438.36,1271.96 2429.5,1276C 2424.45,1278.72 2421.28,1282.89 2420,1288.5C 2419.67,1360.83 2419.33,1433.17 2419,1505.5C 2388.57,1506.5 2358.07,1506.83 2327.5,1506.5C 2327.17,1406.5 2327.5,1306.5 2328.5,1206.5C 2358.4,1206.36 2388.24,1206.03 2418,1205.5C 2419.12,1211.02 2419.96,1216.69 2420.5,1222.5C 2439.61,1209.24 2460.61,1200.91 2483.5,1197.5 Z"/></g>
<g><path style="opacity:1" fill="#00815b" d="M 1293.5,1205.5 C 1349.05,1206.6 1404.55,1206.6 1460,1205.5C 1461.49,1227.68 1461.99,1250.02 1461.5,1272.5C 1436.83,1272.5 1412.17,1272.5 1387.5,1272.5C 1387.5,1291.5 1387.5,1310.5 1387.5,1329.5C 1412.17,1329.5 1436.83,1329.5 1461.5,1329.5C 1461.5,1348.17 1461.5,1366.83 1461.5,1385.5C 1436.83,1385.5 1412.17,1385.5 1387.5,1385.5C 1387.5,1404.17 1387.5,1422.83 1387.5,1441.5C 1412.17,1441.5 1436.83,1441.5 1461.5,1441.5C 1461.5,1463.17 1461.5,1484.83 1461.5,1506.5C 1405.17,1506.5 1348.83,1506.5 1292.5,1506.5C 1292.17,1406.1 1292.5,1305.76 1293.5,1205.5 Z"/></g>
<g><path style="opacity:1" fill="#a8c2b5" d="M 1494.5,1205.5 C 1493.5,1305.76 1493.17,1406.1 1493.5,1506.5C 1492.83,1456.5 1492.5,1406.33 1492.5,1356C 1492.5,1305.5 1493.17,1255.33 1494.5,1205.5 Z"/></g>
<g><path style="opacity:1" fill="#00815b" d="M 1494.5,1205.5 C 1525.72,1205.6 1556.88,1205.93 1588,1206.5C 1588.5,1284.83 1588.67,1363.17 1588.5,1441.5C 1612.84,1441.33 1637.17,1441.5 1661.5,1442C 1662.83,1463.33 1662.83,1484.67 1661.5,1506C 1605.5,1506.5 1549.5,1506.67 1493.5,1506.5C 1493.17,1406.1 1493.5,1305.76 1494.5,1205.5 Z"/></g>
<g><path style="opacity:1" fill="#00815b" d="M 1687.5,1205.5 C 1742.38,1205.74 1797.22,1205.74 1852,1205.5C 1852.41,1205.96 1852.91,1206.29 1853.5,1206.5C 1854.5,1228.49 1854.83,1250.49 1854.5,1272.5C 1830.16,1272.33 1805.83,1272.5 1781.5,1273C 1780.84,1282.26 1780.51,1291.59 1780.5,1301C 1780.51,1310.41 1780.84,1319.74 1781.5,1329C 1805.83,1329.5 1830.16,1329.67 1854.5,1329.5C 1854.5,1348.17 1854.5,1366.83 1854.5,1385.5C 1829.83,1385.5 1805.17,1385.5 1780.5,1385.5C 1780.5,1404.17 1780.5,1422.83 1780.5,1441.5C 1805.17,1441.5 1829.83,1441.5 1854.5,1441.5C 1854.5,1463.17 1854.5,1484.83 1854.5,1506.5C 1798.17,1506.5 1741.83,1506.5 1685.5,1506.5C 1684.84,1405.96 1685.51,1305.62 1687.5,1205.5 Z"/></g>
<g><path style="opacity:1" fill="#00815b" d="M 1873.5,1205.5 C 1900.61,1205.39 1927.94,1205.72 1955.5,1206.5C 1966.69,1273.61 1978.52,1340.61 1991,1407.5C 2003.29,1340.45 2015.79,1273.45 2028.5,1206.5C 2051.07,1205.97 2073.57,1205.64 2096,1205.5C 2096.75,1206.13 2097.58,1206.63 2098.5,1207C 2079.18,1306.74 2060.18,1406.58 2041.5,1506.5C 2000.83,1506.83 1960.16,1506.5 1919.5,1505.5C 1903.62,1406.88 1887.95,1308.22 1872.5,1209.5C 1872.62,1208.08 1872.96,1206.74 1873.5,1205.5 Z"/></g>
<g><path style="opacity:1" fill="#00815b" d="M 2287.5,1272.5 C 2262.83,1272.5 2238.17,1272.5 2213.5,1272.5C 2213.5,1273.5 2213.5,1274.5 2213.5,1275.5C 2213.5,1293.5 2213.5,1311.5 2213.5,1329.5C 2238.17,1329.5 2262.83,1329.5 2287.5,1329.5C 2287.5,1348.17 2287.5,1366.83 2287.5,1385.5C 2262.83,1385.5 2238.17,1385.5 2213.5,1385.5C 2213.5,1404.17 2213.5,1422.83 2213.5,1441.5C 2238.17,1441.5 2262.83,1441.5 2287.5,1441.5C 2287.5,1463.17 2287.5,1484.83 2287.5,1506.5C 2231.17,1506.5 2174.83,1506.5 2118.5,1506.5C 2118.17,1406.5 2118.5,1306.5 2119.5,1206.5C 2174.74,1206.36 2229.9,1206.03 2285,1205.5C 2285.41,1205.96 2285.91,1206.29 2286.5,1206.5C 2287.5,1228.49 2287.83,1250.49 2287.5,1272.5 Z"/></g>
<g><path style="opacity:1" fill="#a8c2b5" d="M 2287.5,1272.5 C 2262.78,1272.85 2238.11,1273.85 2213.5,1275.5C 2213.5,1274.5 2213.5,1273.5 2213.5,1272.5C 2238.17,1272.5 2262.83,1272.5 2287.5,1272.5 Z"/></g>
<g><path style="opacity:1" fill="#fe1527" d="M 1721.5,1539.5 C 1873.17,1539.5 2024.83,1539.5 2176.5,1539.5C 2168.61,1620.73 2164.27,1700.89 2163.5,1780C 2162.26,1823.89 2161.26,1868.56 2160.5,1914C 2160.86,1955.2 2160.86,1999.7 2160.5,2047.5C 2006.5,2047.5 1852.5,2047.5 1698.5,2047.5C 1698.61,1919.68 1702.61,1791.51 1710.5,1663C 1713.86,1621.86 1717.53,1580.69 1721.5,1539.5 Z"/></g>
<g><path style="opacity:1" fill="#00815b" d="M 2292.5,1566.5 C 2328.58,1565.11 2351.08,1581.78 2360,1616.5C 2362.88,1653.6 2346.38,1676.77 2310.5,1686C 2277.92,1688.89 2255.59,1675.22 2243.5,1645C 2235.63,1611.42 2246.96,1586.75 2277.5,1571C 2282.54,1569.15 2287.54,1567.65 2292.5,1566.5 Z"/></g>
<g><path style="opacity:1" fill="#fbfcfb" d="M 2293.5,1574.5 C 2325.82,1573.72 2345.32,1589.06 2352,1620.5C 2352.85,1651.32 2338.35,1670.49 2308.5,1678C 2272.45,1679.28 2252.45,1661.95 2248.5,1626C 2251.14,1597.8 2266.14,1580.63 2293.5,1574.5 Z"/></g>
<g><path style="opacity:1" fill="#00815b" d="M 2276.5,1593.5 C 2288.17,1593.33 2299.84,1593.5 2311.5,1594C 2324.53,1596.55 2329.7,1604.38 2327,1617.5C 2324.38,1623.56 2319.88,1627.39 2313.5,1629C 2318.71,1630.02 2322.54,1632.85 2325,1637.5C 2326.56,1644.74 2327.39,1652.07 2327.5,1659.5C 2323.83,1659.5 2320.17,1659.5 2316.5,1659.5C 2318.88,1637.55 2309.22,1628.89 2287.5,1633.5C 2287.5,1642.17 2287.5,1650.83 2287.5,1659.5C 2283.83,1659.5 2280.17,1659.5 2276.5,1659.5C 2276.5,1637.5 2276.5,1615.5 2276.5,1593.5 Z"/></g>
<g><path style="opacity:1" fill="#f8faf9" d="M 2287.5,1601.5 C 2295.59,1601.1 2303.59,1601.6 2311.5,1603C 2316.68,1607.57 2317.85,1613.07 2315,1619.5C 2313.36,1621.81 2311.2,1623.31 2308.5,1624C 2301.88,1625.38 2295.22,1625.71 2288.5,1625C 2287.52,1617.25 2287.18,1609.42 2287.5,1601.5 Z"/></g>
</svg>
