<?xml version="1.0" encoding="UTF-8"?>
<!DOCTYPE svg PUBLIC "-//W3C//DTD SVG 1.1//EN" "http://www.w3.org/Graphics/SVG/1.1/DTD/svg11.dtd">
<svg xmlns="http://www.w3.org/2000/svg" version="1.1" width="512px" height="512px" style="shape-rendering:geometricPrecision; text-rendering:geometricPrecision; image-rendering:optimizeQuality; fill-rule:evenodd; clip-rule:evenodd" xmlns:xlink="http://www.w3.org/1999/xlink">
<g><path style="opacity:0.988" fill="#000000" d="M 511.5,84.5 C 511.5,88.5 511.5,92.5 511.5,96.5C 492.523,124.434 473.523,152.434 454.5,180.5C 473.523,208.566 492.523,236.566 511.5,264.5C 511.5,268.5 511.5,272.5 511.5,276.5C 509.685,280.479 506.685,283.312 502.5,285C 442.104,304.799 381.771,324.799 321.5,345C 313.416,347.302 306.916,345.135 302,338.5C 286.982,315.118 271.482,292.118 255.5,269.5C 239.518,292.118 224.018,315.118 209,338.5C 204.084,345.135 197.584,347.302 189.5,345C 129.229,324.799 68.896,304.799 8.5,285C 4.31481,283.312 1.31481,280.479 -0.5,276.5C -0.5,272.5 -0.5,268.5 -0.5,264.5C 18.477,236.566 37.477,208.566 56.5,180.5C 37.477,152.434 18.477,124.434 -0.5,96.5C -0.5,92.5 -0.5,88.5 -0.5,84.5C 1.97345,81.1955 4.97345,78.3622 8.5,76C 68.896,56.2013 129.229,36.2013 189.5,16C 197.584,13.698 204.084,15.8647 209,22.5C 224.018,45.8823 239.518,68.8823 255.5,91.5C 271.482,68.8823 286.982,45.8823 302,22.5C 306.916,15.8647 313.416,13.698 321.5,16C 381.771,36.2013 442.104,56.2013 502.5,76C 506.027,78.3622 509.027,81.1955 511.5,84.5 Z M 252.5,137.5 C 254.527,137.338 256.527,137.505 258.5,138C 300.621,151.873 342.621,166.04 384.5,180.5C 342.621,194.96 300.621,209.127 258.5,223C 256.5,223.667 254.5,223.667 252.5,223C 210.379,209.127 168.379,194.96 126.5,180.5C 168.588,166.138 210.588,151.805 252.5,137.5 Z"/></g>
<g><path style="opacity:0.987" fill="#000000" d="M 254.5,321.5 C 255.496,321.414 256.329,321.748 257,322.5C 265,334.5 273,346.5 281,358.5C 293.823,372.995 309.657,377.829 328.5,373C 368.87,359.599 409.204,346.099 449.5,332.5C 449.833,348.167 450.167,363.833 450.5,379.5C 450.653,395.922 450.153,412.255 449,428.5C 446.795,431.04 444.295,433.207 441.5,435C 381.5,455 321.5,475 261.5,495C 257.5,495.667 253.5,495.667 249.5,495C 188.759,474.864 128.093,454.531 67.5,434C 64.9598,431.795 62.7932,429.295 61,426.5C 60.1668,395.161 60.3334,363.828 61.5,332.5C 101.796,346.099 142.13,359.599 182.5,373C 201.343,377.829 217.177,372.995 230,358.5C 238.389,346.285 246.556,333.951 254.5,321.5 Z"/></g>
</svg>
