<?xml version="1.0" encoding="UTF-8"?>
<!DOCTYPE svg PUBLIC "-//W3C//DTD SVG 1.1//EN" "http://www.w3.org/Graphics/SVG/1.1/DTD/svg11.dtd">
<svg xmlns="http://www.w3.org/2000/svg" version="1.1" width="512px" height="512px" style="shape-rendering:geometricPrecision; text-rendering:geometricPrecision; image-rendering:optimizeQuality; fill-rule:evenodd; clip-rule:evenodd" xmlns:xlink="http://www.w3.org/1999/xlink">
<g><path style="opacity:0.995" fill="#000000" d="M 405.5,-0.5 C 440.833,-0.5 476.167,-0.5 511.5,-0.5C 511.5,170.167 511.5,340.833 511.5,511.5C 476.167,511.5 440.833,511.5 405.5,511.5C 405.5,340.833 405.5,170.167 405.5,-0.5 Z"/></g>
<g><path style="opacity:0.994" fill="#000000" d="M 376.5,511.5 C 341.167,511.5 305.833,511.5 270.5,511.5C 270.5,375.833 270.5,240.167 270.5,104.5C 305.833,104.5 341.167,104.5 376.5,104.5C 376.5,240.167 376.5,375.833 376.5,511.5 Z"/></g>
<g><path style="opacity:0.995" fill="#000000" d="M -0.5,210.5 C 34.8333,210.5 70.1667,210.5 105.5,210.5C 105.5,310.833 105.5,411.167 105.5,511.5C 70.1667,511.5 34.8333,511.5 -0.5,511.5C -0.5,411.167 -0.5,310.833 -0.5,210.5 Z"/></g>
<g><path style="opacity:0.993" fill="#000000" d="M 240.5,511.5 C 205.167,511.5 169.833,511.5 134.5,511.5C 134.5,446.167 134.5,380.833 134.5,315.5C 169.833,315.5 205.167,315.5 240.5,315.5C 240.5,380.833 240.5,446.167 240.5,511.5 Z"/></g>
</svg>
