<?xml version="1.0" encoding="UTF-8"?>
<!DOCTYPE svg PUBLIC "-//W3C//DTD SVG 1.1//EN" "http://www.w3.org/Graphics/SVG/1.1/DTD/svg11.dtd">
<svg xmlns="http://www.w3.org/2000/svg" version="1.1" width="512px" height="512px" style="shape-rendering:geometricPrecision; text-rendering:geometricPrecision; image-rendering:optimizeQuality; fill-rule:evenodd; clip-rule:evenodd" xmlns:xlink="http://www.w3.org/1999/xlink">
<g><path style="opacity:0.992" fill="#000000" d="M 43.5,-0.5 C 184.833,-0.5 326.167,-0.5 467.5,-0.5C 490.5,5.83333 505.167,20.5 511.5,43.5C 511.5,128.833 511.5,214.167 511.5,299.5C 340.833,299.5 170.167,299.5 -0.5,299.5C -0.5,214.167 -0.5,128.833 -0.5,43.5C 5.83333,20.5 20.5,5.83333 43.5,-0.5 Z M 100.5,45.5 C 109.051,43.8597 115.218,46.8597 119,54.5C 119.494,56.1341 119.66,57.8008 119.5,59.5C 144.836,59.3334 170.169,59.5 195.5,60C 209.528,63.5627 213.028,71.7294 206,84.5C 203.044,87.2272 199.544,88.7272 195.5,89C 170.169,89.5 144.836,89.6666 119.5,89.5C 119.173,98.4932 114.507,103.16 105.5,103.5C 96.4932,103.16 91.8265,98.4932 91.5,89.5C 84.4369,89.7878 77.4369,89.2878 70.5,88C 61.1704,82.7181 59.0038,75.2181 64,65.5C 67.112,62.1943 70.9453,60.361 75.5,60C 80.8229,59.5006 86.1563,59.334 91.5,59.5C 91.4994,52.8203 94.4994,48.1536 100.5,45.5 Z M 340.5,45.5 C 349.051,43.8597 355.218,46.8597 359,54.5C 359.97,61.8101 360.803,69.1434 361.5,76.5C 370.437,78.8117 378.771,82.4784 386.5,87.5C 391.684,82.4819 397.017,77.6486 402.5,73C 416.494,69.6633 423.327,75.1633 423,89.5C 422.439,91.7254 421.439,93.7254 420,95.5C 415.651,99.6816 411.485,104.015 407.5,108.5C 412.522,116.229 416.188,124.563 418.5,133.5C 426.646,133.946 434.646,135.113 442.5,137C 449.491,141.933 451.325,148.433 448,156.5C 446.833,159 445,160.833 442.5,162C 434.646,163.887 426.646,165.054 418.5,165.5C 416.188,174.437 412.522,182.771 407.5,190.5C 412.518,195.684 417.351,201.017 422,206.5C 425.337,220.494 419.837,227.327 405.5,227C 403.275,226.439 401.275,225.439 399.5,224C 395.318,219.651 390.985,215.485 386.5,211.5C 378.771,216.522 370.437,220.188 361.5,222.5C 361.054,230.646 359.887,238.646 358,246.5C 353.067,253.491 346.567,255.325 338.5,252C 336,250.833 334.167,249 333,246.5C 331.113,238.646 329.946,230.646 329.5,222.5C 320.563,220.188 312.229,216.522 304.5,211.5C 299.316,216.518 293.983,221.351 288.5,226C 274.506,229.337 267.673,223.837 268,209.5C 268.561,207.275 269.561,205.275 271,203.5C 275.349,199.318 279.515,194.985 283.5,190.5C 278.478,182.771 274.812,174.437 272.5,165.5C 264.354,165.054 256.354,163.887 248.5,162C 241.028,156.227 239.528,149.06 244,140.5C 245.41,139.213 246.91,138.046 248.5,137C 256.354,135.113 264.354,133.946 272.5,133.5C 274.812,124.563 278.478,116.229 283.5,108.5C 278.482,103.316 273.649,97.9828 269,92.5C 265.663,78.5064 271.163,71.6731 285.5,72C 287.725,72.5611 289.725,73.5611 291.5,75C 295.682,79.3487 300.015,83.5154 304.5,87.5C 311.894,82.6367 319.894,79.1367 328.5,77C 330.177,69.7316 331.344,62.2316 332,54.5C 333.688,50.3148 336.521,47.3148 340.5,45.5 Z M 160.5,120.5 C 169.051,118.86 175.218,121.86 179,129.5C 179.494,131.134 179.66,132.801 179.5,134.5C 186.563,134.212 193.563,134.712 200.5,136C 209.296,140.44 211.796,147.273 208,156.5C 205.113,161.039 200.947,163.539 195.5,164C 190.177,164.499 184.844,164.666 179.5,164.5C 179.173,173.493 174.507,178.16 165.5,178.5C 156.493,178.16 151.827,173.493 151.5,164.5C 126.164,164.667 100.831,164.5 75.5,164C 62.214,160.927 58.3806,153.094 64,140.5C 67.112,137.194 70.9453,135.361 75.5,135C 100.831,134.5 126.164,134.333 151.5,134.5C 151.499,127.82 154.499,123.154 160.5,120.5 Z M 340.5,135.5 C 354.652,134.151 360.819,140.485 359,154.5C 353.135,164.246 345.301,166.08 335.5,160C 328.906,150.014 330.573,141.848 340.5,135.5 Z M 100.5,195.5 C 109.051,193.86 115.218,196.86 119,204.5C 119.494,206.134 119.66,207.801 119.5,209.5C 144.836,209.333 170.169,209.5 195.5,210C 209.528,213.563 213.028,221.729 206,234.5C 203.044,237.227 199.544,238.727 195.5,239C 170.169,239.5 144.836,239.667 119.5,239.5C 119.173,248.493 114.507,253.16 105.5,253.5C 96.4932,253.16 91.8265,248.493 91.5,239.5C 84.4369,239.788 77.4369,239.288 70.5,238C 62.6953,234.219 59.862,228.053 62,219.5C 64.462,213.513 68.962,210.346 75.5,210C 80.8229,209.501 86.1563,209.334 91.5,209.5C 91.4994,202.82 94.4994,198.154 100.5,195.5 Z"/></g>
<g><path style="opacity:0.962" fill="#000000" d="M 335.5,104.5 C 358.793,101.396 375.959,110.062 387,130.5C 395.029,151.545 390.862,169.712 374.5,185C 357.989,196.094 340.656,197.427 322.5,189C 299.914,172.83 294.414,151.997 306,126.5C 313.172,115.481 323.005,108.148 335.5,104.5 Z M 340.5,135.5 C 330.573,141.848 328.906,150.014 335.5,160C 345.301,166.08 353.135,164.246 359,154.5C 360.819,140.485 354.652,134.151 340.5,135.5 Z"/></g>
<g><path style="opacity:0.996" fill="#000000" d="M -0.5,329.5 C 170.167,329.5 340.833,329.5 511.5,329.5C 511.5,334.833 511.5,340.167 511.5,345.5C 505.959,366.878 492.626,381.044 471.5,388C 426.212,389.313 380.879,389.98 335.5,390C 338.887,400.379 341.887,410.879 344.5,421.5C 285.167,421.5 225.833,421.5 166.5,421.5C 169.113,410.879 172.113,400.379 175.5,390C 130.121,389.98 84.7876,389.313 39.5,388C 18.3742,381.044 5.04082,366.878 -0.5,345.5C -0.5,340.167 -0.5,334.833 -0.5,329.5 Z"/></g>
<g><path style="opacity:0.993" fill="#000000" d="M 371.5,511.5 C 294.167,511.5 216.833,511.5 139.5,511.5C 135.521,509.685 132.688,506.685 131,502.5C 127.016,482.418 133.516,466.918 150.5,456C 153.948,454.073 157.615,452.739 161.5,452C 224.167,451.333 286.833,451.333 349.5,452C 365.667,456.167 375.833,466.333 380,482.5C 380.667,489.167 380.667,495.833 380,502.5C 378.312,506.685 375.479,509.685 371.5,511.5 Z"/></g>
</svg>
