<?xml version="1.0" encoding="UTF-8"?>
<!DOCTYPE svg PUBLIC "-//W3C//DTD SVG 1.1//EN" "http://www.w3.org/Graphics/SVG/1.1/DTD/svg11.dtd">
<svg xmlns="http://www.w3.org/2000/svg" version="1.1" width="512px" height="512px" style="shape-rendering:geometricPrecision; text-rendering:geometricPrecision; image-rendering:optimizeQuality; fill-rule:evenodd; clip-rule:evenodd" xmlns:xlink="http://www.w3.org/1999/xlink">
<g><path style="opacity:0.986" fill="#000000" d="M 511.5,161.5 C 511.5,175.833 511.5,190.167 511.5,204.5C 509.605,207.557 506.938,209.723 503.5,211C 491.505,211.5 479.505,211.667 467.5,211.5C 467.667,282.834 467.5,354.167 467,425.5C 463.695,432.609 458.029,435.609 450,434.5C 443.144,435.306 437.81,432.973 434,427.5C 433.5,355.501 433.333,283.501 433.5,211.5C 422.5,211.5 411.5,211.5 400.5,211.5C 400.667,253.501 400.5,295.501 400,337.5C 396.477,343.872 390.977,346.539 383.5,345.5C 376.023,346.539 370.523,343.872 367,337.5C 366.5,295.501 366.333,253.501 366.5,211.5C 292.5,211.5 218.5,211.5 144.5,211.5C 144.667,253.501 144.5,295.501 144,337.5C 140.431,343.872 134.931,346.539 127.5,345.5C 120.023,346.539 114.523,343.872 111,337.5C 110.5,295.501 110.333,253.501 110.5,211.5C 99.5,211.5 88.5,211.5 77.5,211.5C 77.6667,283.501 77.5,355.501 77,427.5C 73.1897,432.973 67.8564,435.306 61,434.5C 52.9713,435.609 47.3047,432.609 44,425.5C 43.5,354.167 43.3333,282.834 43.5,211.5C 31.4954,211.667 19.4954,211.5 7.5,211C 4.03864,209.695 1.37197,207.529 -0.5,204.5C -0.5,190.167 -0.5,175.833 -0.5,161.5C 26.2703,132.896 53.937,105.063 82.5,78C 139.956,76.8412 197.456,76.3412 255,76.5C 312.544,76.3412 370.044,76.8412 427.5,78C 456.034,105.367 484.034,133.201 511.5,161.5 Z"/></g>
</svg>
